<?xml version="1.0" encoding="UTF-8" standalone="no"?>
<!DOCTYPE svg PUBLIC "-//W3C//DTD SVG 1.1//EN"
 "http://www.w3.org/Graphics/SVG/1.1/DTD/svg11.dtd">
<!-- Generated by graphviz version 9.0.0 (20230911.1827)
 -->
<!-- Title: LiveCloudData Pages: 1 -->
<svg width="176pt" height="84pt"
 viewBox="0.00 0.00 175.88 84.00" xmlns="http://www.w3.org/2000/svg" xmlns:xlink="http://www.w3.org/1999/xlink">
<g id="graph0" class="graph" transform="scale(1 1) rotate(0) translate(4 80)">
<title>LiveCloudData</title>
<!-- Node1 -->
<g id="Node000001" class="node">
<title>Node1</title>
<g id="a_Node000001"><a xlink:title="This is the Base class for all LiveData objects that are used in Cloud Databases, you can inherit fro...">
<polygon fill="#999999" stroke="#666666" points="119.38,-76 41.88,-76 41.88,-56 119.38,-56 119.38,-76"/>
<text text-anchor="middle" x="80.62" y="-62.5" font-family="Helvetica,sans-Serif" font-size="10.00">LiveCloudData</text>
</a>
</g>
</g>
<!-- Node2 -->
<g id="Node000002" class="node">
<title>Node2</title>
<g id="a_Node000002"><a xlink:href="class_hoco_1_1_runtime_1_1_live_cell_data.html" target="_top" xlink:title="The container for the live data of a cell that exists on the block chain and the database.">
<polygon fill="white" stroke="#666666" points="69.25,-20 0,-20 0,0 69.25,0 69.25,-20"/>
<text text-anchor="middle" x="34.62" y="-6.5" font-family="Helvetica,sans-Serif" font-size="10.00">LiveCellData</text>
</a>
</g>
</g>
<!-- Node1&#45;&gt;Node2 -->
<g id="edge1_Node000001_Node000002" class="edge">
<title>Node1&#45;&gt;Node2</title>
<g id="a_edge1_Node000001_Node000002"><a xlink:title=" ">
<path fill="none" stroke="#63b8ff" d="M65.29,-47C57.67,-38.06 48.79,-27.62 42.55,-20.3"/>
<polygon fill="#63b8ff" stroke="#63b8ff" points="62.48,-49.1 71.63,-54.44 67.81,-44.56 62.48,-49.1"/>
</a>
</g>
</g>
<!-- Node3 -->
<g id="Node000003" class="node">
<title>Node3</title>
<g id="a_Node000003"><a xlink:href="class_hoco_1_1_runtime_1_1_live_player_data.html" target="_top" xlink:title="This is the data class that is used to store the PlayerData in the Cloud Database....">
<polygon fill="white" stroke="#666666" points="167.88,-20 87.38,-20 87.38,0 167.88,0 167.88,-20"/>
<text text-anchor="middle" x="127.62" y="-6.5" font-family="Helvetica,sans-Serif" font-size="10.00">LivePlayerData</text>
</a>
</g>
</g>
<!-- Node1&#45;&gt;Node3 -->
<g id="edge2_Node000001_Node000003" class="edge">
<title>Node1&#45;&gt;Node3</title>
<g id="a_edge2_Node000001_Node000003"><a xlink:title=" ">
<path fill="none" stroke="#63b8ff" d="M96.29,-47C104.07,-38.06 113.16,-27.62 119.53,-20.3"/>
<polygon fill="#63b8ff" stroke="#63b8ff" points="93.73,-44.61 89.81,-54.45 99.01,-49.21 93.73,-44.61"/>
</a>
</g>
</g>
</g>
</svg>
