<?xml version="1.0" encoding="UTF-8" standalone="no"?>
<!DOCTYPE svg PUBLIC "-//W3C//DTD SVG 1.1//EN"
 "http://www.w3.org/Graphics/SVG/1.1/DTD/svg11.dtd">
<!-- Generated by graphviz version 9.0.0 (20230911.1827)
 -->
<!-- Title: LiveCloudData Pages: 1 -->
<svg width="283pt" height="84pt"
 viewBox="0.00 0.00 282.88 84.00" xmlns="http://www.w3.org/2000/svg" xmlns:xlink="http://www.w3.org/1999/xlink">
<g id="graph0" class="graph" transform="scale(1 1) rotate(0) translate(4 80)">
<title>LiveCloudData</title>
<!-- Node1 -->
<g id="Node000001" class="node">
<title>Node1</title>
<g id="a_Node000001"><a xlink:title="This is the Base class for all LiveData objects that are used in Cloud Databases, you can inherit fro...">
<polygon fill="#999999" stroke="#666666" points="170.38,-76 92.88,-76 92.88,-56 170.38,-56 170.38,-76"/>
<text text-anchor="middle" x="131.62" y="-62.5" font-family="Helvetica,sans-Serif" font-size="10.00">LiveCloudData</text>
</a>
</g>
</g>
<!-- Node2 -->
<g id="Node000002" class="node">
<title>Node2</title>
<g id="a_Node000002"><a xlink:href="class_hoco_1_1_samples_1_1_runtime_1_1_live_cell_data.html" target="_top" xlink:title="The container for the live data of a cell that exists on the block chain and the database.">
<polygon fill="white" stroke="#666666" points="69.25,-20 0,-20 0,0 69.25,0 69.25,-20"/>
<text text-anchor="middle" x="34.62" y="-6.5" font-family="Helvetica,sans-Serif" font-size="10.00">LiveCellData</text>
</a>
</g>
</g>
<!-- Node1&#45;&gt;Node2 -->
<g id="edge1_Node000001_Node000002" class="edge">
<title>Node1&#45;&gt;Node2</title>
<g id="a_edge1_Node000001_Node000002"><a xlink:title=" ">
<path fill="none" stroke="#63b8ff" d="M104.82,-50.08C87.83,-40.62 66.35,-28.66 51.65,-20.48"/>
<polygon fill="#63b8ff" stroke="#63b8ff" points="102.97,-53.05 113.41,-54.86 106.37,-46.94 102.97,-53.05"/>
</a>
</g>
</g>
<!-- Node3 -->
<g id="Node000003" class="node">
<title>Node3</title>
<g id="a_Node000003"><a xlink:href="class_hoco_1_1_samples_1_1_runtime_1_1_live_item_box_data.html" target="_top" xlink:title=" ">
<polygon fill="white" stroke="#666666" points="176,-20 87.25,-20 87.25,0 176,0 176,-20"/>
<text text-anchor="middle" x="131.62" y="-6.5" font-family="Helvetica,sans-Serif" font-size="10.00">LiveItemBoxData</text>
</a>
</g>
</g>
<!-- Node1&#45;&gt;Node3 -->
<g id="edge2_Node000001_Node000003" class="edge">
<title>Node1&#45;&gt;Node3</title>
<g id="a_edge2_Node000001_Node000003"><a xlink:title=" ">
<path fill="none" stroke="#63b8ff" d="M131.62,-44.13C131.62,-35.9 131.62,-26.85 131.62,-20.3"/>
<polygon fill="#63b8ff" stroke="#63b8ff" points="128.13,-44.08 131.63,-54.08 135.13,-44.08 128.13,-44.08"/>
</a>
</g>
</g>
<!-- Node4 -->
<g id="Node000004" class="node">
<title>Node4</title>
<g id="a_Node000004"><a xlink:href="class_hoco_1_1_samples_1_1_runtime_1_1_live_player_data.html" target="_top" xlink:title="This is the data class that is used to store the PlayerData in the Cloud Database....">
<polygon fill="white" stroke="#666666" points="274.88,-20 194.38,-20 194.38,0 274.88,0 274.88,-20"/>
<text text-anchor="middle" x="234.62" y="-6.5" font-family="Helvetica,sans-Serif" font-size="10.00">LivePlayerData</text>
</a>
</g>
</g>
<!-- Node1&#45;&gt;Node4 -->
<g id="edge3_Node000001_Node000004" class="edge">
<title>Node1&#45;&gt;Node4</title>
<g id="a_edge3_Node000001_Node000004"><a xlink:title=" ">
<path fill="none" stroke="#63b8ff" d="M159.57,-50.35C177.7,-40.84 200.79,-28.74 216.54,-20.48"/>
<polygon fill="#63b8ff" stroke="#63b8ff" points="158.14,-47.15 150.91,-54.89 161.39,-53.35 158.14,-47.15"/>
</a>
</g>
</g>
</g>
</svg>
