<?xml version="1.0" encoding="UTF-8" standalone="no"?>
<!DOCTYPE svg PUBLIC "-//W3C//DTD SVG 1.1//EN"
 "http://www.w3.org/Graphics/SVG/1.1/DTD/svg11.dtd">
<!-- Generated by graphviz version 9.0.0 (20230911.1827)
 -->
<!-- Title: BaseStats Pages: 1 -->
<svg width="184pt" height="84pt"
 viewBox="0.00 0.00 184.38 84.00" xmlns="http://www.w3.org/2000/svg" xmlns:xlink="http://www.w3.org/1999/xlink">
<g id="graph0" class="graph" transform="scale(1 1) rotate(0) translate(4 80)">
<title>BaseStats</title>
<!-- Node1 -->
<g id="Node000001" class="node">
<title>Node1</title>
<g id="a_Node000001"><a xlink:title=" ">
<polygon fill="#999999" stroke="#666666" points="115.38,-76 53.62,-76 53.62,-56 115.38,-56 115.38,-76"/>
<text text-anchor="middle" x="84.5" y="-62.5" font-family="Helvetica,sans-Serif" font-size="10.00">BaseStats</text>
</a>
</g>
</g>
<!-- Node2 -->
<g id="Node000002" class="node">
<title>Node2</title>
<g id="a_Node000002"><a xlink:href="class_hoco_1_1_samples_1_1_primary_stats.html" target="_top" xlink:title="The Primary Stats for the game world.">
<polygon fill="white" stroke="#666666" points="73,-20 0,-20 0,0 73,0 73,-20"/>
<text text-anchor="middle" x="36.5" y="-6.5" font-family="Helvetica,sans-Serif" font-size="10.00">PrimaryStats</text>
</a>
</g>
</g>
<!-- Node1&#45;&gt;Node2 -->
<g id="edge1_Node000001_Node000002" class="edge">
<title>Node1&#45;&gt;Node2</title>
<g id="a_edge1_Node000001_Node000002"><a xlink:title=" ">
<path fill="none" stroke="#63b8ff" d="M68.5,-47C60.55,-38.06 51.28,-27.62 44.77,-20.3"/>
<polygon fill="#63b8ff" stroke="#63b8ff" points="65.87,-49.31 75.13,-54.46 71.11,-44.66 65.87,-49.31"/>
</a>
</g>
</g>
<!-- Node3 -->
<g id="Node000003" class="node">
<title>Node3</title>
<g id="a_Node000003"><a xlink:href="class_hoco_1_1_samples_1_1_secondary_stats.html" target="_top" xlink:title="The Secondary Stats for the game world that are calculated from the Primary Stats.">
<polygon fill="white" stroke="#666666" points="176.38,-20 90.62,-20 90.62,0 176.38,0 176.38,-20"/>
<text text-anchor="middle" x="133.5" y="-6.5" font-family="Helvetica,sans-Serif" font-size="10.00">SecondaryStats</text>
</a>
</g>
</g>
<!-- Node1&#45;&gt;Node3 -->
<g id="edge2_Node000001_Node000003" class="edge">
<title>Node1&#45;&gt;Node3</title>
<g id="a_edge2_Node000001_Node000003"><a xlink:title=" ">
<path fill="none" stroke="#63b8ff" d="M100.57,-47.29C108.75,-38.28 118.35,-27.7 125.06,-20.3"/>
<polygon fill="#63b8ff" stroke="#63b8ff" points="98.18,-44.72 94.05,-54.47 103.36,-49.42 98.18,-44.72"/>
</a>
</g>
</g>
</g>
</svg>
