<?xml version="1.0" encoding="UTF-8" standalone="no"?>
<!DOCTYPE svg PUBLIC "-//W3C//DTD SVG 1.1//EN"
 "http://www.w3.org/Graphics/SVG/1.1/DTD/svg11.dtd">
<!-- Generated by graphviz version 9.0.0 (20230911.1827)
 -->
<!-- Title: Graphical Class Hierarchy Pages: 1 -->
<svg width="192pt" height="66pt"
 viewBox="0.00 0.00 191.50 66.00" xmlns="http://www.w3.org/2000/svg" xmlns:xlink="http://www.w3.org/1999/xlink">
<g id="graph0" class="graph" transform="scale(1 1) rotate(0) translate(4 62)">
<title>Graphical Class Hierarchy</title>
<!-- Node0 -->
<g id="Node000000" class="node">
<title>Node0</title>
<g id="a_Node000000"><a xlink:href="class_hoco_1_1_samples_1_1_base_stats.html" target="_top" xlink:title=" ">
<polygon fill="white" stroke="#666666" points="61.75,-39 0,-39 0,-19 61.75,-19 61.75,-39"/>
<text text-anchor="middle" x="30.88" y="-25.5" font-family="Helvetica,sans-Serif" font-size="10.00">BaseStats</text>
</a>
</g>
</g>
<!-- Node1 -->
<g id="Node000001" class="node">
<title>Node1</title>
<g id="a_Node000001"><a xlink:href="class_hoco_1_1_samples_1_1_primary_stats.html" target="_top" xlink:title="The Primary Stats for the game world.">
<polygon fill="white" stroke="#666666" points="177.12,-58 104.12,-58 104.12,-38 177.12,-38 177.12,-58"/>
<text text-anchor="middle" x="140.62" y="-44.5" font-family="Helvetica,sans-Serif" font-size="10.00">PrimaryStats</text>
</a>
</g>
</g>
<!-- Node0&#45;&gt;Node1 -->
<g id="edge2_Node000000_Node000001" class="edge">
<title>Node0&#45;&gt;Node1</title>
<g id="a_edge2_Node000000_Node000001"><a xlink:title=" ">
<path fill="none" stroke="#63b8ff" d="M73.22,-36.29C83.31,-38.07 94.02,-39.96 103.83,-41.69"/>
<polygon fill="#63b8ff" stroke="#63b8ff" points="74.12,-32.9 63.67,-34.61 72.91,-39.79 74.12,-32.9"/>
</a>
</g>
</g>
<!-- Node2 -->
<g id="Node000002" class="node">
<title>Node2</title>
<g id="a_Node000002"><a xlink:href="class_hoco_1_1_samples_1_1_secondary_stats.html" target="_top" xlink:title="The Secondary Stats for the game world that are calculated from the Primary Stats.">
<polygon fill="white" stroke="#666666" points="183.5,-20 97.75,-20 97.75,0 183.5,0 183.5,-20"/>
<text text-anchor="middle" x="140.62" y="-6.5" font-family="Helvetica,sans-Serif" font-size="10.00">SecondaryStats</text>
</a>
</g>
</g>
<!-- Node0&#45;&gt;Node2 -->
<g id="edge3_Node000000_Node000002" class="edge">
<title>Node0&#45;&gt;Node2</title>
<g id="a_edge3_Node000000_Node000002"><a xlink:title=" ">
<path fill="none" stroke="#63b8ff" d="M73.4,-21.68C81.3,-20.28 89.57,-18.83 97.49,-17.43"/>
<polygon fill="#63b8ff" stroke="#63b8ff" points="72.91,-18.21 63.67,-23.39 74.12,-25.1 72.91,-18.21"/>
</a>
</g>
</g>
</g>
</svg>
