<?xml version="1.0" encoding="UTF-8" standalone="no"?>
<!DOCTYPE svg PUBLIC "-//W3C//DTD SVG 1.1//EN"
 "http://www.w3.org/Graphics/SVG/1.1/DTD/svg11.dtd">
<!-- Generated by graphviz version 9.0.0 (20230911.1827)
 -->
<!-- Title: Graphical Class Hierarchy Pages: 1 -->
<svg width="202pt" height="66pt"
 viewBox="0.00 0.00 202.00 66.00" xmlns="http://www.w3.org/2000/svg" xmlns:xlink="http://www.w3.org/1999/xlink">
<g id="graph0" class="graph" transform="scale(1 1) rotate(0) translate(4 62)">
<title>Graphical Class Hierarchy</title>
<!-- Node0 -->
<g id="Node000000" class="node">
<title>Node0</title>
<g id="a_Node000000"><a xlink:href="class_hoco_1_1_runtime_1_1_live_cloud_data.html" target="_top" xlink:title="This is the Base class for all LiveData objects that are used in Cloud Databases, you can inherit fro...">
<polygon fill="white" stroke="#666666" points="77.5,-39 0,-39 0,-19 77.5,-19 77.5,-39"/>
<text text-anchor="middle" x="38.75" y="-25.5" font-family="Helvetica,sans-Serif" font-size="10.00">LiveCloudData</text>
</a>
</g>
</g>
<!-- Node1 -->
<g id="Node000001" class="node">
<title>Node1</title>
<g id="a_Node000001"><a xlink:href="class_hoco_1_1_runtime_1_1_live_cell_data.html" target="_top" xlink:title="The container for the live data of a cell that exists on the block chain and the database.">
<polygon fill="white" stroke="#666666" points="188.38,-58 119.12,-58 119.12,-38 188.38,-38 188.38,-58"/>
<text text-anchor="middle" x="153.75" y="-44.5" font-family="Helvetica,sans-Serif" font-size="10.00">LiveCellData</text>
</a>
</g>
</g>
<!-- Node0&#45;&gt;Node1 -->
<g id="edge3_Node000000_Node000001" class="edge">
<title>Node0&#45;&gt;Node1</title>
<g id="a_edge3_Node000000_Node000001"><a xlink:title=" ">
<path fill="none" stroke="#63b8ff" d="M88.91,-37.27C99.03,-38.97 109.46,-40.72 118.89,-42.31"/>
<polygon fill="#63b8ff" stroke="#63b8ff" points="89.63,-33.84 79.18,-35.63 88.47,-40.74 89.63,-33.84"/>
</a>
</g>
</g>
<!-- Node2 -->
<g id="Node000002" class="node">
<title>Node2</title>
<g id="a_Node000002"><a xlink:href="class_hoco_1_1_runtime_1_1_live_player_data.html" target="_top" xlink:title="This is the data class that is used to store the PlayerData in the Cloud Database....">
<polygon fill="white" stroke="#666666" points="194,-20 113.5,-20 113.5,0 194,0 194,-20"/>
<text text-anchor="middle" x="153.75" y="-6.5" font-family="Helvetica,sans-Serif" font-size="10.00">LivePlayerData</text>
</a>
</g>
</g>
<!-- Node0&#45;&gt;Node2 -->
<g id="edge4_Node000000_Node000002" class="edge">
<title>Node0&#45;&gt;Node2</title>
<g id="a_edge4_Node000000_Node000002"><a xlink:title=" ">
<path fill="none" stroke="#63b8ff" d="M88.94,-20.73C97.04,-19.37 105.34,-17.97 113.17,-16.66"/>
<polygon fill="#63b8ff" stroke="#63b8ff" points="88.47,-17.26 79.18,-22.37 89.63,-24.16 88.47,-17.26"/>
</a>
</g>
</g>
</g>
</svg>
