<?xml version="1.0" encoding="UTF-8" standalone="no"?>
<!DOCTYPE svg PUBLIC "-//W3C//DTD SVG 1.1//EN"
 "http://www.w3.org/Graphics/SVG/1.1/DTD/svg11.dtd">
<!-- Generated by graphviz version 9.0.0 (20230911.1827)
 -->
<!-- Title: Graphical Class Hierarchy Pages: 1 -->
<svg width="210pt" height="104pt"
 viewBox="0.00 0.00 210.25 104.00" xmlns="http://www.w3.org/2000/svg" xmlns:xlink="http://www.w3.org/1999/xlink">
<g id="graph0" class="graph" transform="scale(1 1) rotate(0) translate(4 100)">
<title>Graphical Class Hierarchy</title>
<!-- Node0 -->
<g id="Node000000" class="node">
<title>Node0</title>
<g id="a_Node000000"><a xlink:href="class_hoco_1_1_cloud_1_1_live_cloud_data.html" target="_top" xlink:title="This is the Base class for all LiveData objects that are used in Cloud Databases, you can inherit fro...">
<polygon fill="white" stroke="#666666" points="77.5,-58 0,-58 0,-38 77.5,-38 77.5,-58"/>
<text text-anchor="middle" x="38.75" y="-44.5" font-family="Helvetica,sans-Serif" font-size="10.00">LiveCloudData</text>
</a>
</g>
</g>
<!-- Node1 -->
<g id="Node000001" class="node">
<title>Node1</title>
<g id="a_Node000001"><a xlink:href="class_hoco_1_1_samples_1_1_runtime_1_1_live_cell_data.html" target="_top" xlink:title="The container for the live data of a cell that exists on the block chain and the database.">
<polygon fill="white" stroke="#666666" points="192.5,-96 123.25,-96 123.25,-76 192.5,-76 192.5,-96"/>
<text text-anchor="middle" x="157.88" y="-82.5" font-family="Helvetica,sans-Serif" font-size="10.00">LiveCellData</text>
</a>
</g>
</g>
<!-- Node0&#45;&gt;Node1 -->
<g id="edge5_Node000000_Node000001" class="edge">
<title>Node0&#45;&gt;Node1</title>
<g id="a_edge5_Node000000_Node000001"><a xlink:title=" ">
<path fill="none" stroke="#63b8ff" d="M82.83,-61.98C96.67,-66.47 111.75,-71.36 124.67,-75.55"/>
<polygon fill="#63b8ff" stroke="#63b8ff" points="84.1,-58.71 73.5,-58.95 81.94,-65.37 84.1,-58.71"/>
</a>
</g>
</g>
<!-- Node2 -->
<g id="Node000002" class="node">
<title>Node2</title>
<g id="a_Node000002"><a xlink:href="class_hoco_1_1_samples_1_1_runtime_1_1_live_item_box_data.html" target="_top" xlink:title=" ">
<polygon fill="white" stroke="#666666" points="202.25,-58 113.5,-58 113.5,-38 202.25,-38 202.25,-58"/>
<text text-anchor="middle" x="157.88" y="-44.5" font-family="Helvetica,sans-Serif" font-size="10.00">LiveItemBoxData</text>
</a>
</g>
</g>
<!-- Node0&#45;&gt;Node2 -->
<g id="edge6_Node000000_Node000002" class="edge">
<title>Node0&#45;&gt;Node2</title>
<g id="a_edge6_Node000000_Node000002"><a xlink:title=" ">
<path fill="none" stroke="#63b8ff" d="M89.26,-48C97.27,-48 105.5,-48 113.35,-48"/>
<polygon fill="#63b8ff" stroke="#63b8ff" points="89.29,-44.5 79.29,-48 89.29,-51.5 89.29,-44.5"/>
</a>
</g>
</g>
<!-- Node3 -->
<g id="Node000003" class="node">
<title>Node3</title>
<g id="a_Node000003"><a xlink:href="class_hoco_1_1_samples_1_1_runtime_1_1_live_player_data.html" target="_top" xlink:title="This is the data class that is used to store the PlayerData in the Cloud Database....">
<polygon fill="white" stroke="#666666" points="198.12,-20 117.62,-20 117.62,0 198.12,0 198.12,-20"/>
<text text-anchor="middle" x="157.88" y="-6.5" font-family="Helvetica,sans-Serif" font-size="10.00">LivePlayerData</text>
</a>
</g>
</g>
<!-- Node0&#45;&gt;Node3 -->
<g id="edge7_Node000000_Node000003" class="edge">
<title>Node0&#45;&gt;Node3</title>
<g id="a_edge7_Node000000_Node000003"><a xlink:title=" ">
<path fill="none" stroke="#63b8ff" d="M82.83,-34.02C96.67,-29.53 111.75,-24.64 124.67,-20.45"/>
<polygon fill="#63b8ff" stroke="#63b8ff" points="81.94,-30.63 73.5,-37.05 84.1,-37.29 81.94,-30.63"/>
</a>
</g>
</g>
</g>
</svg>
