<?xml version="1.0" encoding="UTF-8" standalone="no"?>
<!DOCTYPE svg PUBLIC "-//W3C//DTD SVG 1.1//EN"
 "http://www.w3.org/Graphics/SVG/1.1/DTD/svg11.dtd">
<!-- Generated by graphviz version 9.0.0 (20230911.1827)
 -->
<!-- Title: Graphical Class Hierarchy Pages: 1 -->
<svg width="207pt" height="104pt"
 viewBox="0.00 0.00 207.25 104.00" xmlns="http://www.w3.org/2000/svg" xmlns:xlink="http://www.w3.org/1999/xlink">
<g id="graph0" class="graph" transform="scale(1 1) rotate(0) translate(4 100)">
<title>Graphical Class Hierarchy</title>
<!-- Node0 -->
<g id="Node000000" class="node">
<title>Node0</title>
<g id="a_Node000000"><a xlink:title=" ">
<polygon fill="#e0e0e0" stroke="#999999" points="82,-58 0,-58 0,-38 82,-38 82,-58"/>
<text text-anchor="middle" x="41" y="-44.5" font-family="Helvetica,sans-Serif" font-size="10.00">MonoBehaviour</text>
</a>
</g>
</g>
<!-- Node1 -->
<g id="Node000001" class="node">
<title>Node1</title>
<g id="a_Node000001"><a xlink:href="class_hoco_1_1_samples_1_1_runtime_1_1_item_box.html" target="_top" xlink:title=" ">
<polygon fill="white" stroke="#666666" points="184.62,-96 132.62,-96 132.62,-76 184.62,-76 184.62,-96"/>
<text text-anchor="middle" x="158.62" y="-82.5" font-family="Helvetica,sans-Serif" font-size="10.00">ItemBox</text>
</a>
</g>
</g>
<!-- Node0&#45;&gt;Node1 -->
<g id="edge8_Node000000_Node000001" class="edge">
<title>Node0&#45;&gt;Node1</title>
<g id="a_edge8_Node000000_Node000001"><a xlink:title=" ">
<path fill="none" stroke="#63b8ff" d="M84.68,-62.03C100.73,-67.3 118.46,-73.13 132.42,-77.72"/>
<polygon fill="#63b8ff" stroke="#63b8ff" points="85.93,-58.75 75.34,-58.96 83.75,-65.4 85.93,-58.75"/>
</a>
</g>
</g>
<!-- Node2 -->
<g id="Node000002" class="node">
<title>Node2</title>
<g id="a_Node000002"><a xlink:href="class_hoco_1_1_samples_1_1_runtime_1_1_player_manager.html" target="_top" xlink:title=" ">
<polygon fill="white" stroke="#666666" points="199.25,-58 118,-58 118,-38 199.25,-38 199.25,-58"/>
<text text-anchor="middle" x="158.62" y="-44.5" font-family="Helvetica,sans-Serif" font-size="10.00">PlayerManager</text>
</a>
</g>
</g>
<!-- Node0&#45;&gt;Node2 -->
<g id="edge9_Node000000_Node000002" class="edge">
<title>Node0&#45;&gt;Node2</title>
<g id="a_edge9_Node000000_Node000002"><a xlink:title=" ">
<path fill="none" stroke="#63b8ff" d="M93.7,-48C101.78,-48 110.03,-48 117.79,-48"/>
<polygon fill="#63b8ff" stroke="#63b8ff" points="93.95,-44.5 83.95,-48 93.95,-51.5 93.95,-44.5"/>
</a>
</g>
</g>
<!-- Node3 -->
<g id="Node000003" class="node">
<title>Node3</title>
<g id="a_Node000003"><a xlink:href="class_hoco_1_1_singleton.html" target="_top" xlink:title=" ">
<polygon fill="white" stroke="#666666" points="198.5,-20 118.75,-20 118.75,0 198.5,0 198.5,-20"/>
<text text-anchor="middle" x="158.62" y="-6.5" font-family="Helvetica,sans-Serif" font-size="10.00">Singleton&lt; T &gt;</text>
</a>
</g>
</g>
<!-- Node0&#45;&gt;Node3 -->
<g id="edge10_Node000000_Node000003" class="edge">
<title>Node0&#45;&gt;Node3</title>
<g id="a_edge10_Node000000_Node000003"><a xlink:title=" ">
<path fill="none" stroke="#63b8ff" d="M84.53,-34.02C98.19,-29.53 113.08,-24.64 125.83,-20.45"/>
<polygon fill="#63b8ff" stroke="#63b8ff" points="83.75,-30.6 75.34,-37.04 85.93,-37.25 83.75,-30.6"/>
</a>
</g>
</g>
</g>
</svg>
