<?xml version="1.0" encoding="UTF-8" standalone="no"?>
<!DOCTYPE svg PUBLIC "-//W3C//DTD SVG 1.1//EN"
 "http://www.w3.org/Graphics/SVG/1.1/DTD/svg11.dtd">
<!-- Generated by graphviz version 9.0.0 (20230911.1827)
 -->
<!-- Title: Graphical Class Hierarchy Pages: 1 -->
<svg width="207pt" height="66pt"
 viewBox="0.00 0.00 207.25 66.00" xmlns="http://www.w3.org/2000/svg" xmlns:xlink="http://www.w3.org/1999/xlink">
<g id="graph0" class="graph" transform="scale(1 1) rotate(0) translate(4 62)">
<title>Graphical Class Hierarchy</title>
<!-- Node0 -->
<g id="Node000000" class="node">
<title>Node0</title>
<g id="a_Node000000"><a xlink:title=" ">
<polygon fill="#e0e0e0" stroke="#999999" points="82,-39 0,-39 0,-19 82,-19 82,-39"/>
<text text-anchor="middle" x="41" y="-25.5" font-family="Helvetica,sans-Serif" font-size="10.00">MonoBehaviour</text>
</a>
</g>
</g>
<!-- Node1 -->
<g id="Node000001" class="node">
<title>Node1</title>
<g id="a_Node000001"><a xlink:href="class_hoco_1_1_samples_1_1_player_manager.html" target="_top" xlink:title=" ">
<polygon fill="white" stroke="#666666" points="199.25,-58 118,-58 118,-38 199.25,-38 199.25,-58"/>
<text text-anchor="middle" x="158.62" y="-44.5" font-family="Helvetica,sans-Serif" font-size="10.00">PlayerManager</text>
</a>
</g>
</g>
<!-- Node0&#45;&gt;Node1 -->
<g id="edge5_Node000000_Node000001" class="edge">
<title>Node0&#45;&gt;Node1</title>
<g id="a_edge5_Node000000_Node000001"><a xlink:title=" ">
<path fill="none" stroke="#63b8ff" d="M93.7,-37.49C101.78,-38.82 110.03,-40.18 117.79,-41.45"/>
<polygon fill="#63b8ff" stroke="#63b8ff" points="94.37,-34.06 83.93,-35.89 93.23,-40.97 94.37,-34.06"/>
</a>
</g>
</g>
<!-- Node2 -->
<g id="Node000002" class="node">
<title>Node2</title>
<g id="a_Node000002"><a xlink:href="class_hoco_1_1_singleton.html" target="_top" xlink:title=" ">
<polygon fill="white" stroke="#666666" points="198.5,-20 118.75,-20 118.75,0 198.5,0 198.5,-20"/>
<text text-anchor="middle" x="158.62" y="-6.5" font-family="Helvetica,sans-Serif" font-size="10.00">Singleton&lt; T &gt;</text>
</a>
</g>
</g>
<!-- Node0&#45;&gt;Node2 -->
<g id="edge6_Node000000_Node000002" class="edge">
<title>Node0&#45;&gt;Node2</title>
<g id="a_edge6_Node000000_Node000002"><a xlink:title=" ">
<path fill="none" stroke="#63b8ff" d="M93.67,-20.51C102.03,-19.13 110.57,-17.73 118.57,-16.42"/>
<polygon fill="#63b8ff" stroke="#63b8ff" points="93.23,-17.03 83.93,-22.11 94.37,-23.94 93.23,-17.03"/>
</a>
</g>
</g>
</g>
</svg>
